<svg width="1604" height="736" viewBox="0 0 1604 736" fill="none" xmlns="http://www.w3.org/2000/svg">
<path d="M376.036 583.477V582.869C376.036 523.869 420.629 475.554 484.092 475.554C516.418 475.554 537.668 485.024 555.924 498.961C559.821 501.927 563.104 506.966 563.104 513.47C563.104 523.548 555.022 531.267 544.848 531.267C539.761 531.267 536.153 529.48 533.772 527.729C519.413 516.15 503.827 509.039 483.767 509.039C443.972 509.039 414.64 541.666 414.64 582.262V582.834C414.64 623.465 443.683 656.378 483.767 656.378C505.919 656.378 520.892 649.267 536.153 636.509C538.859 634.15 542.755 632.364 547.229 632.364C556.501 632.364 564.583 640.083 564.583 649.267C564.583 654.913 561.877 659.344 558.594 662.31C538.823 679.499 516.382 690.185 482.576 690.185C421.531 690.185 376 643.049 376 583.441L376.036 583.477Z" fill="url(#paint0_linear_1_14)"/>
<path d="M854.727 497.496C854.727 487.133 862.808 479.128 873.271 479.128H948.098C974.436 479.128 995.108 486.847 1008.57 499.89C1019.64 511.147 1025.92 526.585 1025.92 544.668V545.239C1025.92 578.438 1006.47 598.593 978.332 607.206L1018.45 657.308C1022.02 661.739 1024.44 665.598 1024.44 671.245C1024.44 681.322 1015.75 688.148 1006.8 688.148C998.428 688.148 993.016 684.288 988.831 678.642L937.96 614.317H891.563V670.065C891.563 680.143 883.481 688.148 873.307 688.148C863.133 688.148 854.763 680.143 854.763 670.065V497.496H854.727ZM945.392 581.976C971.73 581.976 988.506 568.325 988.506 547.276V546.705C988.506 524.477 972.343 512.327 945.104 512.327H891.527V582.012H945.392V581.976Z" fill="url(#paint1_linear_1_14)"/>
<path d="M1071.16 668.243V497.496C1071.16 487.133 1079.24 479.128 1089.71 479.128H1211.54C1220.53 479.128 1228 486.525 1228 495.423C1228 504.322 1220.49 511.719 1211.54 511.719H1107.96V565.68H1198.05C1207.03 565.68 1214.5 573.078 1214.5 582.298C1214.5 591.518 1207.03 598.307 1198.05 598.307H1107.96V654.056H1213.02C1222.01 654.056 1229.47 661.453 1229.47 670.351C1229.47 679.249 1222.01 686.647 1213.02 686.647H1089.71C1079.24 686.647 1071.16 678.642 1071.16 668.278V668.243Z" fill="url(#paint2_linear_1_14)"/>
<path d="M771.063 440.14C789.535 490.384 811.688 544.989 796.571 599.093C785.963 637.045 761.141 663.847 725.279 679.892C711.317 686.146 678.846 692.221 669.393 699.261C659.436 706.659 658.75 733.675 655.9 735.462C653.771 736.82 646.195 735.105 642.948 735.712C647.133 681.072 699.591 649.088 716.44 599.129C701.936 618.212 690.319 639.368 674.084 657.164C656.549 676.39 650.055 688.648 627.831 667.456C589.19 630.577 596.082 555.317 627.903 515.936C658.678 477.841 701.142 472.195 743.535 452.969C748.297 450.789 768.501 438.389 771.063 440.175V440.14Z" fill="url(#paint3_linear_1_14)"/>
<g clip-path="url(#clip0_1_14)">
<path d="M0.000161371 39.3673C0.000161371 20.7555 14.3707 6.38259 32.9307 6.38259H166.942C209.47 6.38259 242.936 18.0758 264.224 39.3673C280.689 55.8353 289.214 76.0548 289.214 101.049V102.121C289.214 146.799 263.688 170.721 236.067 185.094C279.666 200.003 309.966 224.997 309.966 275.473V276.545C309.966 343.002 255.212 378.617 172.252 378.617H32.9307C14.322 378.617 0.000161371 364.245 0.000161371 345.682V39.3673ZM153.644 163.267C195.635 163.267 223.791 146.799 223.791 112.742V111.67C223.791 82.4374 200.409 64.3616 158.417 64.3616H64.3024V163.267H153.644ZM172.788 320.638C217.459 320.638 244.544 303.099 244.544 269.578V268.506C244.544 237.129 219.553 218.517 168.014 218.517H64.3024V320.59H172.788V320.638Z" fill="black"/>
<path d="M367.401 193.572V192.5C367.401 87.748 448.168 0 562.5 0C676.831 0 756.576 86.6762 756.576 191.428V192.5C756.576 297.252 675.759 385 561.477 385C447.194 385 367.401 298.324 367.401 193.572ZM687.938 193.572V192.5C687.938 120.197 635.327 60.074 561.428 60.074C487.529 60.074 435.941 119.076 435.941 191.428V192.5C435.941 264.803 488.552 324.39 562.451 324.39C636.35 324.39 687.938 265.924 687.938 193.572Z" fill="black"/>
<path d="M829.937 220.661V36.1516C829.937 18.0758 844.308 3.75156 862.917 3.75156C881.525 3.75156 895.311 18.1245 895.311 36.1516V218.03C895.311 287.167 930.97 323.854 989.426 323.854C1047.88 323.854 1083.01 289.31 1083.01 220.71V36.1516C1083.01 18.0758 1097.38 3.75156 1115.98 3.75156C1134.59 3.75156 1148.43 18.1245 1148.43 36.1516V217.494C1148.43 328.629 1085.68 384.464 988.403 384.464C891.122 384.464 829.986 328.629 829.986 220.71L829.937 220.661Z" fill="black"/>
<path d="M1238.26 37.2234C1238.26 19.1476 1252.63 4.23875 1271.24 4.23875H1278.15C1292.52 4.23875 1302.07 11.6932 1308.45 21.7786L1421.18 198.347L1534.44 21.2427C1541.35 10.0854 1550.9 4.23875 1564.2 4.23875H1571.12C1589.73 4.23875 1604.1 19.1476 1604.1 37.2234V348.8C1604.1 366.875 1589.73 381.248 1571.12 381.248C1553.58 381.248 1538.72 366.339 1538.72 348.8V125.507L1447.77 262.172C1440.86 272.794 1432.38 279.176 1420.15 279.176C1407.93 279.176 1399.94 272.794 1393.02 262.172L1302.66 126.579V349.384C1302.66 367.46 1288.29 381.297 1270.21 381.297C1252.14 381.297 1238.3 367.46 1238.3 349.384V37.2234H1238.26Z" fill="black"/>
</g>
<defs>
<linearGradient id="paint0_linear_1_14" x1="470.31" y1="411.908" x2="470.31" y2="717.665" gradientUnits="userSpaceOnUse">
<stop stop-color="#A5D171"/>
<stop offset="1" stop-color="#098040"/>
</linearGradient>
<linearGradient id="paint1_linear_1_14" x1="940.305" y1="411.908" x2="940.305" y2="717.666" gradientUnits="userSpaceOnUse">
<stop stop-color="#A5D171"/>
<stop offset="1" stop-color="#098040"/>
</linearGradient>
<linearGradient id="paint2_linear_1_14" x1="1150.32" y1="411.908" x2="1150.32" y2="717.666" gradientUnits="userSpaceOnUse">
<stop stop-color="#A5D171"/>
<stop offset="1" stop-color="#098040"/>
</linearGradient>
<linearGradient id="paint3_linear_1_14" x1="701.467" y1="411.908" x2="701.467" y2="717.665" gradientUnits="userSpaceOnUse">
<stop stop-color="#A5D171"/>
<stop offset="1" stop-color="#098040"/>
</linearGradient>
<clipPath id="clip0_1_14">
<rect width="1604" height="385" fill="white"/>
</clipPath>
</defs>
</svg>
